<svg width="22" height="21" viewBox="0 0 22 21" fill="none" xmlns="http://www.w3.org/2000/svg">
<path d="M10.1874 5.09421H4.07068" stroke="#ADADAD" stroke-width="1.5" stroke-linecap="round" stroke-linejoin="round"/>
<path d="M7.12903 4.06451V5.09419" stroke="#ADADAD" stroke-width="1.5" stroke-linecap="round" stroke-linejoin="round"/>
<path d="M8.66123 5.08191C8.66123 7.71739 6.60187 9.85028 4.06445 9.85028" stroke="#ADADAD" stroke-width="1.5" stroke-linecap="round" stroke-linejoin="round"/>
<path fill-rule="evenodd" clip-rule="evenodd" d="M5.29032 0.25C3.68409 0.25 2.36462 0.566653 1.46564 1.46564C0.566653 2.36462 0.25 3.68409 0.25 5.29032V8.96774C0.25 10.574 0.566653 11.8934 1.46564 12.7924C2.36462 13.6914 3.68409 14.0081 5.29032 14.0081H7.74194V12.5081H5.29032C3.83204 12.5081 3.00635 12.2118 2.5263 11.7318C2.04625 11.2517 1.75 10.426 1.75 8.96774V5.29032C1.75 3.83204 2.04625 3.00635 2.5263 2.5263C3.00635 2.04625 3.83204 1.75 5.29032 1.75H8.96774C10.426 1.75 11.2517 2.04625 11.7318 2.5263C12.2118 3.00635 12.5081 3.83204 12.5081 5.29032V7.12903H14.0081V5.29032C14.0081 3.68409 13.6914 2.36462 12.7924 1.46564C11.8934 0.566653 10.574 0.25 8.96774 0.25H5.29032Z" fill="#ADADAD"/>
<path d="M16.3227 15.7097L14.1775 10.1935L12.0323 15.7097" stroke="#ADADAD" stroke-width="1.5" stroke-linecap="round" stroke-linejoin="round"/>
<path d="M13.2581 13.871L15.0968 13.871" stroke="#ADADAD" stroke-width="1.5" stroke-linecap="round" stroke-linejoin="round"/>
<path d="M12.2903 19.2581H15.9677C19.0323 19.2581 20.2581 18.0323 20.2581 14.9677V11.2903C20.2581 8.22581 19.0323 7 15.9677 7H12.2903C9.22581 7 8 8.22581 8 11.2903V14.9677C8 18.0323 9.22581 19.2581 12.2903 19.2581Z" stroke="#ADADAD" stroke-width="1.5" stroke-linecap="round" stroke-linejoin="round"/>
</svg>
